<?xml version="1.0" encoding="utf-8" standalone="no"?>
<!DOCTYPE svg PUBLIC "-//W3C//DTD SVG 1.1//EN"
  "http://www.w3.org/Graphics/SVG/1.1/DTD/svg11.dtd">
<svg xmlns:xlink="http://www.w3.org/1999/xlink" width="728.39952pt" height="512.39952pt" viewBox="0 0 728.39952 512.39952" xmlns="http://www.w3.org/2000/svg" version="1.1">
 <metadata>
  <rdf:RDF xmlns:dc="http://purl.org/dc/elements/1.1/" xmlns:cc="http://creativecommons.org/ns#" xmlns:rdf="http://www.w3.org/1999/02/22-rdf-syntax-ns#">
   <cc:Work>
    <dc:type rdf:resource="http://purl.org/dc/dcmitype/StillImage"/>
    <dc:date>2025-10-19T15:59:41.042961</dc:date>
    <dc:format>image/svg+xml</dc:format>
    <dc:creator>
     <cc:Agent>
      <dc:title>Matplotlib v3.10.6, https://matplotlib.org/</dc:title>
     </cc:Agent>
    </dc:creator>
   </cc:Work>
  </rdf:RDF>
 </metadata>
 <defs>
  <style type="text/css">*{stroke-linejoin: round; stroke-linecap: butt}</style>
 </defs>
 <g id="figure_1">
  <g id="patch_1">
   <path d="M 0 512.39952 
L 728.39952 512.39952 
L 728.39952 0 
L 0 0 
z
" style="fill: #ffffff"/>
  </g>
  <g id="axes_1">
   <g id="patch_2">
    <path d="M 51.11375 475.813895 
L 721.19952 475.813895 
L 721.19952 23.077969 
L 51.11375 23.077969 
z
" style="fill: #ffffff"/>
   </g>
   <g id="matplotlib.axis_1">
    <g id="xtick_1">
     <g id="line2d_1">
      <defs>
       <path id="ma2a9e055fa" d="M 0 0 
L 0 -5 
" style="stroke: #000000; stroke-width: 1.5"/>
      </defs>
      <g>
       <use xlink:href="#ma2a9e055fa" x="81.572194" y="475.813895" style="stroke: #000000; stroke-width: 1.5"/>
      </g>
     </g>
     <g id="text_1">
      <!-- $\mathdefault{0}$ -->
      <g transform="translate(78.372194 487.412332) scale(0.1 -0.1)">
       <defs>
        <path id="DejaVuSans-30" d="M 2034 4250 
Q 1547 4250 1301 3770 
Q 1056 3291 1056 2328 
Q 1056 1369 1301 889 
Q 1547 409 2034 409 
Q 2525 409 2770 889 
Q 3016 1369 3016 2328 
Q 3016 3291 2770 3770 
Q 2525 4250 2034 4250 
z
M 2034 4750 
Q 2819 4750 3233 4129 
Q 3647 3509 3647 2328 
Q 3647 1150 3233 529 
Q 2819 -91 2034 -91 
Q 1250 -91 836 529 
Q 422 1150 422 2328 
Q 422 3509 836 4129 
Q 1250 4750 2034 4750 
z
" transform="scale(0.015625)"/>
       </defs>
       <use xlink:href="#DejaVuSans-30" transform="translate(0 0.78125)"/>
      </g>
     </g>
    </g>
    <g id="xtick_2">
     <g id="line2d_2">
      <g>
       <use xlink:href="#ma2a9e055fa" x="203.40597" y="475.813895" style="stroke: #000000; stroke-width: 1.5"/>
      </g>
     </g>
     <g id="text_2">
      <!-- $\mathdefault{2}$ -->
      <g transform="translate(200.20597 487.412332) scale(0.1 -0.1)">
       <defs>
        <path id="DejaVuSans-32" d="M 1228 531 
L 3431 531 
L 3431 0 
L 469 0 
L 469 531 
Q 828 903 1448 1529 
Q 2069 2156 2228 2338 
Q 2531 2678 2651 2914 
Q 2772 3150 2772 3378 
Q 2772 3750 2511 3984 
Q 2250 4219 1831 4219 
Q 1534 4219 1204 4116 
Q 875 4013 500 3803 
L 500 4441 
Q 881 4594 1212 4672 
Q 1544 4750 1819 4750 
Q 2544 4750 2975 4387 
Q 3406 4025 3406 3419 
Q 3406 3131 3298 2873 
Q 3191 2616 2906 2266 
Q 2828 2175 2409 1742 
Q 1991 1309 1228 531 
z
" transform="scale(0.015625)"/>
       </defs>
       <use xlink:href="#DejaVuSans-32" transform="translate(0 0.78125)"/>
      </g>
     </g>
    </g>
    <g id="xtick_3">
     <g id="line2d_3">
      <g>
       <use xlink:href="#ma2a9e055fa" x="325.239747" y="475.813895" style="stroke: #000000; stroke-width: 1.5"/>
      </g>
     </g>
     <g id="text_3">
      <!-- $\mathdefault{4}$ -->
      <g transform="translate(322.039747 487.412332) scale(0.1 -0.1)">
       <defs>
        <path id="DejaVuSans-34" d="M 2419 4116 
L 825 1625 
L 2419 1625 
L 2419 4116 
z
M 2253 4666 
L 3047 4666 
L 3047 1625 
L 3713 1625 
L 3713 1100 
L 3047 1100 
L 3047 0 
L 2419 0 
L 2419 1100 
L 313 1100 
L 313 1709 
L 2253 4666 
z
" transform="scale(0.015625)"/>
       </defs>
       <use xlink:href="#DejaVuSans-34" transform="translate(0 0.09375)"/>
      </g>
     </g>
    </g>
    <g id="xtick_4">
     <g id="line2d_4">
      <g>
       <use xlink:href="#ma2a9e055fa" x="447.073523" y="475.813895" style="stroke: #000000; stroke-width: 1.5"/>
      </g>
     </g>
     <g id="text_4">
      <!-- $\mathdefault{6}$ -->
      <g transform="translate(443.873523 487.412332) scale(0.1 -0.1)">
       <defs>
        <path id="DejaVuSans-36" d="M 2113 2584 
Q 1688 2584 1439 2293 
Q 1191 2003 1191 1497 
Q 1191 994 1439 701 
Q 1688 409 2113 409 
Q 2538 409 2786 701 
Q 3034 994 3034 1497 
Q 3034 2003 2786 2293 
Q 2538 2584 2113 2584 
z
M 3366 4563 
L 3366 3988 
Q 3128 4100 2886 4159 
Q 2644 4219 2406 4219 
Q 1781 4219 1451 3797 
Q 1122 3375 1075 2522 
Q 1259 2794 1537 2939 
Q 1816 3084 2150 3084 
Q 2853 3084 3261 2657 
Q 3669 2231 3669 1497 
Q 3669 778 3244 343 
Q 2819 -91 2113 -91 
Q 1303 -91 875 529 
Q 447 1150 447 2328 
Q 447 3434 972 4092 
Q 1497 4750 2381 4750 
Q 2619 4750 2861 4703 
Q 3103 4656 3366 4563 
z
" transform="scale(0.015625)"/>
       </defs>
       <use xlink:href="#DejaVuSans-36" transform="translate(0 0.78125)"/>
      </g>
     </g>
    </g>
    <g id="xtick_5">
     <g id="line2d_5">
      <g>
       <use xlink:href="#ma2a9e055fa" x="568.9073" y="475.813895" style="stroke: #000000; stroke-width: 1.5"/>
      </g>
     </g>
     <g id="text_5">
      <!-- $\mathdefault{8}$ -->
      <g transform="translate(565.7073 487.412332) scale(0.1 -0.1)">
       <defs>
        <path id="DejaVuSans-38" d="M 2034 2216 
Q 1584 2216 1326 1975 
Q 1069 1734 1069 1313 
Q 1069 891 1326 650 
Q 1584 409 2034 409 
Q 2484 409 2743 651 
Q 3003 894 3003 1313 
Q 3003 1734 2745 1975 
Q 2488 2216 2034 2216 
z
M 1403 2484 
Q 997 2584 770 2862 
Q 544 3141 544 3541 
Q 544 4100 942 4425 
Q 1341 4750 2034 4750 
Q 2731 4750 3128 4425 
Q 3525 4100 3525 3541 
Q 3525 3141 3298 2862 
Q 3072 2584 2669 2484 
Q 3125 2378 3379 2068 
Q 3634 1759 3634 1313 
Q 3634 634 3220 271 
Q 2806 -91 2034 -91 
Q 1263 -91 848 271 
Q 434 634 434 1313 
Q 434 1759 690 2068 
Q 947 2378 1403 2484 
z
M 1172 3481 
Q 1172 3119 1398 2916 
Q 1625 2713 2034 2713 
Q 2441 2713 2670 2916 
Q 2900 3119 2900 3481 
Q 2900 3844 2670 4047 
Q 2441 4250 2034 4250 
Q 1625 4250 1398 4047 
Q 1172 3844 1172 3481 
z
" transform="scale(0.015625)"/>
       </defs>
       <use xlink:href="#DejaVuSans-38" transform="translate(0 0.78125)"/>
      </g>
     </g>
    </g>
    <g id="xtick_6">
     <g id="line2d_6">
      <g>
       <use xlink:href="#ma2a9e055fa" x="690.741076" y="475.813895" style="stroke: #000000; stroke-width: 1.5"/>
      </g>
     </g>
     <g id="text_6">
      <!-- $\mathdefault{10}$ -->
      <g transform="translate(684.341076 487.412332) scale(0.1 -0.1)">
       <defs>
        <path id="DejaVuSans-31" d="M 794 531 
L 1825 531 
L 1825 4091 
L 703 3866 
L 703 4441 
L 1819 4666 
L 2450 4666 
L 2450 531 
L 3481 531 
L 3481 0 
L 794 0 
L 794 531 
z
" transform="scale(0.015625)"/>
       </defs>
       <use xlink:href="#DejaVuSans-31" transform="translate(0 0.78125)"/>
       <use xlink:href="#DejaVuSans-30" transform="translate(63.623047 0.78125)"/>
      </g>
     </g>
    </g>
    <g id="text_7">
     <!-- Voltage (V) -->
     <g transform="translate(348.166322 502.610145) scale(0.12 -0.12)">
      <defs>
       <path id="DejaVuSans-Bold-56" d="M 31 4666 
L 1241 4666 
L 2478 1222 
L 3713 4666 
L 4922 4666 
L 3194 0 
L 1759 0 
L 31 4666 
z
" transform="scale(0.015625)"/>
       <path id="DejaVuSans-Bold-6f" d="M 2203 2784 
Q 1831 2784 1636 2517 
Q 1441 2250 1441 1747 
Q 1441 1244 1636 976 
Q 1831 709 2203 709 
Q 2569 709 2762 976 
Q 2956 1244 2956 1747 
Q 2956 2250 2762 2517 
Q 2569 2784 2203 2784 
z
M 2203 3584 
Q 3106 3584 3614 3096 
Q 4122 2609 4122 1747 
Q 4122 884 3614 396 
Q 3106 -91 2203 -91 
Q 1297 -91 786 396 
Q 275 884 275 1747 
Q 275 2609 786 3096 
Q 1297 3584 2203 3584 
z
" transform="scale(0.015625)"/>
       <path id="DejaVuSans-Bold-6c" d="M 538 4863 
L 1656 4863 
L 1656 0 
L 538 0 
L 538 4863 
z
" transform="scale(0.015625)"/>
       <path id="DejaVuSans-Bold-74" d="M 1759 4494 
L 1759 3500 
L 2913 3500 
L 2913 2700 
L 1759 2700 
L 1759 1216 
Q 1759 972 1856 886 
Q 1953 800 2241 800 
L 2816 800 
L 2816 0 
L 1856 0 
Q 1194 0 917 276 
Q 641 553 641 1216 
L 641 2700 
L 84 2700 
L 84 3500 
L 641 3500 
L 641 4494 
L 1759 4494 
z
" transform="scale(0.015625)"/>
       <path id="DejaVuSans-Bold-61" d="M 2106 1575 
Q 1756 1575 1579 1456 
Q 1403 1338 1403 1106 
Q 1403 894 1545 773 
Q 1688 653 1941 653 
Q 2256 653 2472 879 
Q 2688 1106 2688 1447 
L 2688 1575 
L 2106 1575 
z
M 3816 1997 
L 3816 0 
L 2688 0 
L 2688 519 
Q 2463 200 2181 54 
Q 1900 -91 1497 -91 
Q 953 -91 614 226 
Q 275 544 275 1050 
Q 275 1666 698 1953 
Q 1122 2241 2028 2241 
L 2688 2241 
L 2688 2328 
Q 2688 2594 2478 2717 
Q 2269 2841 1825 2841 
Q 1466 2841 1156 2769 
Q 847 2697 581 2553 
L 581 3406 
Q 941 3494 1303 3539 
Q 1666 3584 2028 3584 
Q 2975 3584 3395 3211 
Q 3816 2838 3816 1997 
z
" transform="scale(0.015625)"/>
       <path id="DejaVuSans-Bold-67" d="M 2919 594 
Q 2688 288 2409 144 
Q 2131 0 1766 0 
Q 1125 0 706 504 
Q 288 1009 288 1791 
Q 288 2575 706 3076 
Q 1125 3578 1766 3578 
Q 2131 3578 2409 3434 
Q 2688 3291 2919 2981 
L 2919 3500 
L 4044 3500 
L 4044 353 
Q 4044 -491 3511 -936 
Q 2978 -1381 1966 -1381 
Q 1638 -1381 1331 -1331 
Q 1025 -1281 716 -1178 
L 716 -306 
Q 1009 -475 1290 -558 
Q 1572 -641 1856 -641 
Q 2406 -641 2662 -400 
Q 2919 -159 2919 353 
L 2919 594 
z
M 2181 2772 
Q 1834 2772 1640 2515 
Q 1447 2259 1447 1791 
Q 1447 1309 1634 1061 
Q 1822 813 2181 813 
Q 2531 813 2725 1069 
Q 2919 1325 2919 1791 
Q 2919 2259 2725 2515 
Q 2531 2772 2181 2772 
z
" transform="scale(0.015625)"/>
       <path id="DejaVuSans-Bold-65" d="M 4031 1759 
L 4031 1441 
L 1416 1441 
Q 1456 1047 1700 850 
Q 1944 653 2381 653 
Q 2734 653 3104 758 
Q 3475 863 3866 1075 
L 3866 213 
Q 3469 63 3072 -14 
Q 2675 -91 2278 -91 
Q 1328 -91 801 392 
Q 275 875 275 1747 
Q 275 2603 792 3093 
Q 1309 3584 2216 3584 
Q 3041 3584 3536 3087 
Q 4031 2591 4031 1759 
z
M 2881 2131 
Q 2881 2450 2695 2645 
Q 2509 2841 2209 2841 
Q 1884 2841 1681 2658 
Q 1478 2475 1428 2131 
L 2881 2131 
z
" transform="scale(0.015625)"/>
       <path id="DejaVuSans-Bold-20" transform="scale(0.015625)"/>
       <path id="DejaVuSans-Bold-28" d="M 2413 -844 
L 1484 -844 
Q 1006 -72 778 623 
Q 550 1319 550 2003 
Q 550 2688 779 3389 
Q 1009 4091 1484 4856 
L 2413 4856 
Q 2013 4116 1813 3408 
Q 1613 2700 1613 2009 
Q 1613 1319 1811 609 
Q 2009 -100 2413 -844 
z
" transform="scale(0.015625)"/>
       <path id="DejaVuSans-Bold-29" d="M 513 -844 
Q 913 -100 1113 609 
Q 1313 1319 1313 2009 
Q 1313 2700 1113 3408 
Q 913 4116 513 4856 
L 1441 4856 
Q 1916 4091 2145 3389 
Q 2375 2688 2375 2003 
Q 2375 1319 2147 623 
Q 1919 -72 1441 -844 
L 513 -844 
z
" transform="scale(0.015625)"/>
      </defs>
      <use xlink:href="#DejaVuSans-Bold-56"/>
      <use xlink:href="#DejaVuSans-Bold-6f" transform="translate(71.892578 0)"/>
      <use xlink:href="#DejaVuSans-Bold-6c" transform="translate(140.59375 0)"/>
      <use xlink:href="#DejaVuSans-Bold-74" transform="translate(174.871094 0)"/>
      <use xlink:href="#DejaVuSans-Bold-61" transform="translate(222.673828 0)"/>
      <use xlink:href="#DejaVuSans-Bold-67" transform="translate(290.154297 0)"/>
      <use xlink:href="#DejaVuSans-Bold-65" transform="translate(361.736328 0)"/>
      <use xlink:href="#DejaVuSans-Bold-20" transform="translate(429.558594 0)"/>
      <use xlink:href="#DejaVuSans-Bold-28" transform="translate(464.373047 0)"/>
      <use xlink:href="#DejaVuSans-Bold-56" transform="translate(510.076172 0)"/>
      <use xlink:href="#DejaVuSans-Bold-29" transform="translate(587.46875 0)"/>
     </g>
    </g>
   </g>
   <g id="matplotlib.axis_2">
    <g id="ytick_1">
     <g id="line2d_7">
      <defs>
       <path id="m5e88691af2" d="M 0 0 
L 5 0 
" style="stroke: #000000; stroke-width: 1.5"/>
      </defs>
      <g>
       <use xlink:href="#m5e88691af2" x="51.11375" y="420.984317" style="stroke: #000000; stroke-width: 1.5"/>
      </g>
     </g>
     <g id="text_8">
      <!-- $\mathdefault{−1.5}$ -->
      <g transform="translate(22.81375 424.783536) scale(0.1 -0.1)">
       <defs>
        <path id="DejaVuSans-2212" d="M 678 2272 
L 4684 2272 
L 4684 1741 
L 678 1741 
L 678 2272 
z
" transform="scale(0.015625)"/>
        <path id="DejaVuSans-2e" d="M 684 794 
L 1344 794 
L 1344 0 
L 684 0 
L 684 794 
z
" transform="scale(0.015625)"/>
        <path id="DejaVuSans-35" d="M 691 4666 
L 3169 4666 
L 3169 4134 
L 1269 4134 
L 1269 2991 
Q 1406 3038 1543 3061 
Q 1681 3084 1819 3084 
Q 2600 3084 3056 2656 
Q 3513 2228 3513 1497 
Q 3513 744 3044 326 
Q 2575 -91 1722 -91 
Q 1428 -91 1123 -41 
Q 819 9 494 109 
L 494 744 
Q 775 591 1075 516 
Q 1375 441 1709 441 
Q 2250 441 2565 725 
Q 2881 1009 2881 1497 
Q 2881 1984 2565 2268 
Q 2250 2553 1709 2553 
Q 1456 2553 1204 2497 
Q 953 2441 691 2322 
L 691 4666 
z
" transform="scale(0.015625)"/>
       </defs>
       <use xlink:href="#DejaVuSans-2212" transform="translate(0 0.09375)"/>
       <use xlink:href="#DejaVuSans-31" transform="translate(83.789062 0.09375)"/>
       <use xlink:href="#DejaVuSans-2e" transform="translate(147.412109 0.09375)"/>
       <use xlink:href="#DejaVuSans-35" transform="translate(179.199219 0.09375)"/>
      </g>
     </g>
    </g>
    <g id="ytick_2">
     <g id="line2d_8">
      <g>
       <use xlink:href="#m5e88691af2" x="51.11375" y="363.794294" style="stroke: #000000; stroke-width: 1.5"/>
      </g>
     </g>
     <g id="text_9">
      <!-- $\mathdefault{−1.0}$ -->
      <g transform="translate(22.81375 367.593513) scale(0.1 -0.1)">
       <use xlink:href="#DejaVuSans-2212" transform="translate(0 0.78125)"/>
       <use xlink:href="#DejaVuSans-31" transform="translate(83.789062 0.78125)"/>
       <use xlink:href="#DejaVuSans-2e" transform="translate(147.412109 0.78125)"/>
       <use xlink:href="#DejaVuSans-30" transform="translate(179.199219 0.78125)"/>
      </g>
     </g>
    </g>
    <g id="ytick_3">
     <g id="line2d_9">
      <g>
       <use xlink:href="#m5e88691af2" x="51.11375" y="306.604271" style="stroke: #000000; stroke-width: 1.5"/>
      </g>
     </g>
     <g id="text_10">
      <!-- $\mathdefault{−0.5}$ -->
      <g transform="translate(22.81375 310.40349) scale(0.1 -0.1)">
       <use xlink:href="#DejaVuSans-2212" transform="translate(0 0.78125)"/>
       <use xlink:href="#DejaVuSans-30" transform="translate(83.789062 0.78125)"/>
       <use xlink:href="#DejaVuSans-2e" transform="translate(147.412109 0.78125)"/>
       <use xlink:href="#DejaVuSans-35" transform="translate(179.199219 0.78125)"/>
      </g>
     </g>
    </g>
    <g id="ytick_4">
     <g id="line2d_10">
      <g>
       <use xlink:href="#m5e88691af2" x="51.11375" y="249.414248" style="stroke: #000000; stroke-width: 1.5"/>
      </g>
     </g>
     <g id="text_11">
      <!-- $\mathdefault{0.0}$ -->
      <g transform="translate(31.11375 253.213467) scale(0.1 -0.1)">
       <use xlink:href="#DejaVuSans-30" transform="translate(0 0.78125)"/>
       <use xlink:href="#DejaVuSans-2e" transform="translate(63.623047 0.78125)"/>
       <use xlink:href="#DejaVuSans-30" transform="translate(95.410156 0.78125)"/>
      </g>
     </g>
    </g>
    <g id="ytick_5">
     <g id="line2d_11">
      <g>
       <use xlink:href="#m5e88691af2" x="51.11375" y="192.224225" style="stroke: #000000; stroke-width: 1.5"/>
      </g>
     </g>
     <g id="text_12">
      <!-- $\mathdefault{0.5}$ -->
      <g transform="translate(31.11375 196.023444) scale(0.1 -0.1)">
       <use xlink:href="#DejaVuSans-30" transform="translate(0 0.78125)"/>
       <use xlink:href="#DejaVuSans-2e" transform="translate(63.623047 0.78125)"/>
       <use xlink:href="#DejaVuSans-35" transform="translate(95.410156 0.78125)"/>
      </g>
     </g>
    </g>
    <g id="ytick_6">
     <g id="line2d_12">
      <g>
       <use xlink:href="#m5e88691af2" x="51.11375" y="135.034202" style="stroke: #000000; stroke-width: 1.5"/>
      </g>
     </g>
     <g id="text_13">
      <!-- $\mathdefault{1.0}$ -->
      <g transform="translate(31.11375 138.83342) scale(0.1 -0.1)">
       <use xlink:href="#DejaVuSans-31" transform="translate(0 0.78125)"/>
       <use xlink:href="#DejaVuSans-2e" transform="translate(63.623047 0.78125)"/>
       <use xlink:href="#DejaVuSans-30" transform="translate(95.410156 0.78125)"/>
      </g>
     </g>
    </g>
    <g id="ytick_7">
     <g id="line2d_13">
      <g>
       <use xlink:href="#m5e88691af2" x="51.11375" y="77.844179" style="stroke: #000000; stroke-width: 1.5"/>
      </g>
     </g>
     <g id="text_14">
      <!-- $\mathdefault{1.5}$ -->
      <g transform="translate(31.11375 81.643397) scale(0.1 -0.1)">
       <use xlink:href="#DejaVuSans-31" transform="translate(0 0.09375)"/>
       <use xlink:href="#DejaVuSans-2e" transform="translate(63.623047 0.09375)"/>
       <use xlink:href="#DejaVuSans-35" transform="translate(95.410156 0.09375)"/>
      </g>
     </g>
    </g>
    <g id="text_15">
     <!-- Current (A) -->
     <g transform="translate(16.318125 287.463432) rotate(-90) scale(0.12 -0.12)">
      <defs>
       <path id="DejaVuSans-Bold-43" d="M 4288 256 
Q 3956 84 3597 -3 
Q 3238 -91 2847 -91 
Q 1681 -91 1000 561 
Q 319 1213 319 2328 
Q 319 3447 1000 4098 
Q 1681 4750 2847 4750 
Q 3238 4750 3597 4662 
Q 3956 4575 4288 4403 
L 4288 3438 
Q 3953 3666 3628 3772 
Q 3303 3878 2944 3878 
Q 2300 3878 1931 3465 
Q 1563 3053 1563 2328 
Q 1563 1606 1931 1193 
Q 2300 781 2944 781 
Q 3303 781 3628 887 
Q 3953 994 4288 1222 
L 4288 256 
z
" transform="scale(0.015625)"/>
       <path id="DejaVuSans-Bold-75" d="M 500 1363 
L 500 3500 
L 1625 3500 
L 1625 3150 
Q 1625 2866 1622 2436 
Q 1619 2006 1619 1863 
Q 1619 1441 1641 1255 
Q 1663 1069 1716 984 
Q 1784 875 1895 815 
Q 2006 756 2150 756 
Q 2500 756 2700 1025 
Q 2900 1294 2900 1772 
L 2900 3500 
L 4019 3500 
L 4019 0 
L 2900 0 
L 2900 506 
Q 2647 200 2364 54 
Q 2081 -91 1741 -91 
Q 1134 -91 817 281 
Q 500 653 500 1363 
z
" transform="scale(0.015625)"/>
       <path id="DejaVuSans-Bold-72" d="M 3138 2547 
Q 2991 2616 2845 2648 
Q 2700 2681 2553 2681 
Q 2122 2681 1889 2404 
Q 1656 2128 1656 1613 
L 1656 0 
L 538 0 
L 538 3500 
L 1656 3500 
L 1656 2925 
Q 1872 3269 2151 3426 
Q 2431 3584 2822 3584 
Q 2878 3584 2943 3579 
Q 3009 3575 3134 3559 
L 3138 2547 
z
" transform="scale(0.015625)"/>
       <path id="DejaVuSans-Bold-6e" d="M 4056 2131 
L 4056 0 
L 2931 0 
L 2931 347 
L 2931 1631 
Q 2931 2084 2911 2256 
Q 2891 2428 2841 2509 
Q 2775 2619 2662 2680 
Q 2550 2741 2406 2741 
Q 2056 2741 1856 2470 
Q 1656 2200 1656 1722 
L 1656 0 
L 538 0 
L 538 3500 
L 1656 3500 
L 1656 2988 
Q 1909 3294 2193 3439 
Q 2478 3584 2822 3584 
Q 3428 3584 3742 3212 
Q 4056 2841 4056 2131 
z
" transform="scale(0.015625)"/>
       <path id="DejaVuSans-Bold-41" d="M 3419 850 
L 1538 850 
L 1241 0 
L 31 0 
L 1759 4666 
L 3194 4666 
L 4922 0 
L 3713 0 
L 3419 850 
z
M 1838 1716 
L 3116 1716 
L 2478 3572 
L 1838 1716 
z
" transform="scale(0.015625)"/>
      </defs>
      <use xlink:href="#DejaVuSans-Bold-43"/>
      <use xlink:href="#DejaVuSans-Bold-75" transform="translate(73.388672 0)"/>
      <use xlink:href="#DejaVuSans-Bold-72" transform="translate(144.580078 0)"/>
      <use xlink:href="#DejaVuSans-Bold-72" transform="translate(193.896484 0)"/>
      <use xlink:href="#DejaVuSans-Bold-65" transform="translate(243.212891 0)"/>
      <use xlink:href="#DejaVuSans-Bold-6e" transform="translate(311.035156 0)"/>
      <use xlink:href="#DejaVuSans-Bold-74" transform="translate(382.226562 0)"/>
      <use xlink:href="#DejaVuSans-Bold-20" transform="translate(430.029297 0)"/>
      <use xlink:href="#DejaVuSans-Bold-28" transform="translate(464.84375 0)"/>
      <use xlink:href="#DejaVuSans-Bold-41" transform="translate(510.546875 0)"/>
      <use xlink:href="#DejaVuSans-Bold-29" transform="translate(587.939453 0)"/>
     </g>
    </g>
   </g>
   <g id="line2d_14">
    <path d="M 81.572194 249.414248 
L 87.725415 237.880345 
L 93.878636 226.464023 
L 100.031857 215.281663 
L 106.185078 204.447264 
L 112.338299 194.071275 
L 118.49152 184.259473 
L 124.644741 175.111882 
L 130.797962 166.721757 
L 136.951183 159.174629 
L 143.104404 152.547438 
L 149.257625 146.907743 
L 155.410846 142.313036 
L 161.564067 138.810159 
L 167.717288 136.434821 
L 173.87051 135.211236 
L 180.023731 135.151879 
L 186.176952 136.257355 
L 192.330173 138.516394 
L 198.483394 141.905966 
L 204.636615 146.391517 
L 210.789836 151.92732 
L 216.943057 158.456941 
L 223.096278 165.913814 
L 229.249499 174.221921 
L 235.40272 183.296567 
L 241.555941 193.04524 
L 247.709162 203.36856 
L 253.862383 214.161286 
L 260.015604 225.313395 
L 266.168825 236.711196 
L 272.322046 248.238497 
L 278.475267 259.777783 
L 284.628488 271.21142 
L 290.781709 282.422849 
L 296.93493 293.297776 
L 303.088151 303.725338 
L 309.241372 313.599233 
L 315.394593 322.818802 
L 321.547814 331.290059 
L 327.701035 338.926643 
L 333.854256 345.650705 
L 340.007477 351.393697 
L 346.160698 356.097073 
L 352.313919 359.712885 
L 358.46714 362.204272 
L 364.620361 363.545835 
L 370.773582 363.7239 
L 376.926803 362.73665 
L 383.080024 360.594149 
L 389.233246 357.31824 
L 395.386467 352.942318 
L 401.539688 347.510992 
L 407.692909 341.079632 
L 413.84613 333.713801 
L 419.999351 325.48859 
L 426.152572 316.487849 
L 432.305793 306.803335 
L 438.459014 296.533775 
L 444.612235 285.783862 
L 450.765456 274.663183 
L 456.918677 263.285107 
L 463.071898 251.765627 
L 469.225119 240.222176 
L 475.37834 228.772432 
L 481.531561 217.533118 
L 487.684782 206.618813 
L 493.838003 196.14078 
L 499.991224 186.205836 
L 506.144445 176.915262 
L 512.297666 168.36377 
L 518.450887 160.638536 
L 524.604108 153.818314 
L 530.757329 147.972632 
L 536.91055 143.161084 
L 543.063771 139.432719 
L 549.216992 136.825547 
L 555.370213 135.366145 
L 561.523434 135.069392 
L 567.676655 135.938312 
L 573.829876 137.964048 
L 579.983097 141.125948 
L 586.136318 145.391779 
L 592.289539 150.718053 
L 598.44276 157.050473 
L 604.595982 164.324483 
L 610.749203 172.465929 
L 616.902424 181.391815 
L 623.055645 191.011147 
L 629.208866 201.225861 
L 635.362087 211.931826 
L 641.515308 223.0199 
L 647.668529 234.377048 
L 653.82175 245.88749 
L 659.974971 257.433886 
L 666.128192 268.898527 
L 672.281413 280.164537 
L 678.434634 291.117068 
L 684.587855 301.644465 
L 690.741076 311.639408 
" clip-path="url(#p645aeeac1e)" style="fill: none; stroke: #e41a1c; stroke-width: 2.5; stroke-linecap: square"/>
   </g>
   <g id="line2d_15">
    <path d="M 81.572194 152.35956 
L 87.725415 143.067425 
L 93.878636 134.859428 
L 100.031857 127.819244 
L 106.185078 122.018646 
L 112.338299 117.516765 
L 118.49152 114.359495 
L 124.644741 112.579023 
L 130.797962 112.1935 
L 136.951183 113.206856 
L 143.104404 115.60876 
L 149.257625 119.374727 
L 155.410846 124.466364 
L 161.564067 130.831766 
L 167.717288 138.406042 
L 173.87051 147.111976 
L 180.023731 156.860817 
L 186.176952 167.553182 
L 192.330173 179.080069 
L 198.483394 191.323968 
L 204.636615 204.160061 
L 210.789836 217.457492 
L 216.943057 231.080702 
L 223.096278 244.89081 
L 229.249499 258.747033 
L 235.40272 272.508113 
L 241.555941 286.033766 
L 247.709162 299.186106 
L 253.862383 311.831054 
L 260.015604 323.839702 
L 266.168825 335.089629 
L 272.322046 345.46615 
L 278.475267 354.863482 
L 284.628488 363.185826 
L 290.781709 370.348341 
L 296.93493 376.278009 
L 303.088151 380.914381 
L 309.241372 384.210192 
L 315.394593 386.131844 
L 321.547814 386.659746 
L 327.701035 385.788517 
L 333.854256 383.527039 
L 340.007477 379.898365 
L 346.160698 374.939489 
L 352.313919 368.700961 
L 358.46714 361.246381 
L 364.620361 352.651743 
L 370.773582 343.004665 
L 376.926803 332.40349 
L 383.080024 320.956293 
L 389.233246 308.77977 
L 395.386467 295.998053 
L 401.539688 282.741444 
L 407.692909 269.145085 
L 413.84613 255.347582 
L 419.999351 241.489593 
L 426.152572 227.712391 
L 432.305793 214.156425 
L 438.459014 200.959891 
L 444.612235 188.257318 
L 450.765456 176.178201 
L 456.918677 164.84568 
L 463.071898 154.375282 
L 469.225119 144.873746 
L 475.37834 136.437934 
L 481.531561 129.153845 
L 487.684782 123.095734 
L 493.838003 118.325361 
L 499.991224 114.891357 
L 506.144445 112.828728 
L 512.297666 112.158502 
L 518.450887 112.887512 
L 524.604108 115.008326 
L 530.757329 118.499323 
L 536.91055 123.324915 
L 543.063771 129.435908 
L 549.216992 136.770005 
L 555.370213 145.252438 
L 561.523434 154.796736 
L 567.676655 165.305599 
L 573.829876 176.671896 
L 579.983097 188.779756 
L 586.136318 201.505747 
L 592.289539 214.720134 
L 598.44276 228.288206 
L 604.595982 242.071644 
L 610.749203 255.929936 
L 616.902424 269.721804 
L 623.055645 283.30665 
L 629.208866 296.545984 
L 635.362087 309.30484 
L 641.515308 321.453149 
L 647.668529 332.867067 
L 653.82175 343.430236 
L 659.974971 353.034971 
L 666.128192 361.583359 
L 672.281413 368.988254 
L 678.434634 375.174167 
L 684.587855 380.078037 
L 690.741076 383.649872 
" clip-path="url(#p645aeeac1e)" style="fill: none; stroke: #377eb8; stroke-width: 2.5; stroke-linecap: square"/>
   </g>
   <g id="line2d_16">
    <path d="M 81.572194 89.282183 
L 87.725415 90.098406 
L 93.878636 92.538753 
L 100.031857 96.578346 
L 106.185078 102.176005 
L 112.338299 109.274665 
L 118.49152 117.80196 
L 124.644741 127.670958 
L 130.797962 138.781053 
L 136.951183 151.018983 
L 143.104404 164.25999 
L 149.257625 178.369092 
L 155.410846 193.202454 
L 161.564067 208.60886 
L 167.717288 224.43125 
L 173.87051 240.508327 
L 180.023731 256.676194 
L 186.176952 272.77003 
L 192.330173 288.625769 
L 198.483394 304.08177 
L 204.636615 318.980472 
L 210.789836 333.169989 
L 216.943057 346.505669 
L 223.096278 358.851564 
L 229.249499 370.081814 
L 235.40272 380.081935 
L 241.555941 388.749982 
L 247.709162 395.997588 
L 253.862383 401.75087 
L 260.015604 405.951176 
L 266.168825 408.555688 
L 272.322046 409.537852 
L 278.475267 408.887658 
L 284.628488 406.611733 
L 290.781709 402.733279 
L 296.93493 397.291835 
L 303.088151 390.342872 
L 309.241372 381.95723 
L 315.394593 372.220397 
L 321.547814 361.231632 
L 327.701035 349.10296 
L 333.854256 335.958024 
L 340.007477 321.93083 
L 346.160698 307.164374 
L 352.313919 291.809193 
L 358.46714 276.021821 
L 364.620361 259.963203 
L 370.773582 243.797044 
L 376.926803 227.68815 
L 383.080024 211.800739 
L 389.233246 196.296774 
L 395.386467 181.334308 
L 401.539688 167.065874 
L 407.692909 153.63693 
L 413.84613 141.184375 
L 419.999351 129.835156 
L 426.152572 119.704969 
L 432.305793 110.897087 
L 438.459014 103.5013 
L 444.612235 97.593003 
L 450.765456 93.232427 
L 456.918677 90.464027 
L 463.071898 89.316024 
L 469.225119 89.800121 
L 475.37834 91.911383 
L 481.531561 95.628288 
L 487.684782 100.912943 
L 493.838003 107.711475 
L 499.991224 115.954578 
L 506.144445 125.558217 
L 512.297666 136.42449 
L 518.450887 148.442623 
L 524.604108 161.490098 
L 530.757329 175.433904 
L 536.91055 190.131892 
L 543.063771 205.434227 
L 549.216992 221.18491 
L 555.370213 237.223374 
L 561.523434 253.386116 
L 567.676655 269.508367 
L 573.829876 285.425771 
L 579.983097 300.976061 
L 586.136318 316.000711 
L 592.289539 330.346553 
L 598.44276 343.867342 
L 604.595982 356.425241 
L 610.749203 367.892231 
L 616.902424 378.151412 
L 623.055645 387.0982 
L 629.208866 394.641387 
L 635.362087 400.704074 
L 641.515308 405.224458 
L 647.668529 408.156454 
L 653.82175 409.470175 
L 659.974971 409.152226 
L 666.128192 407.205849 
L 672.281413 403.650887 
L 678.434634 398.52358 
L 684.587855 391.876197 
L 690.741076 383.776505 
" clip-path="url(#p645aeeac1e)" style="fill: none; stroke: #4daf4a; stroke-width: 2.5; stroke-linecap: square"/>
   </g>
   <g id="line2d_17">
    <path d="M 81.572194 120.007998 
L 87.725415 133.716727 
L 93.878636 148.60492 
L 100.031857 164.5208 
L 106.185078 181.302114 
L 112.338299 198.77779 
L 118.49152 216.769671 
L 124.644741 235.094344 
L 130.797962 253.564999 
L 136.951183 271.99334 
L 143.104404 290.191501 
L 149.257625 307.973964 
L 155.410846 325.159448 
L 161.564067 341.572757 
L 167.717288 357.046568 
L 173.87051 371.423136 
L 180.023731 384.5559 
L 186.176952 396.31098 
L 192.330173 406.568542 
L 198.483394 415.224014 
L 204.636615 422.18916 
L 210.789836 427.392976 
L 216.943057 430.782411 
L 223.096278 432.322912 
L 229.249499 431.998774 
L 235.40272 429.813303 
L 241.555941 425.788777 
L 247.709162 419.966225 
L 253.862383 412.405002 
L 260.015604 403.182192 
L 266.168825 392.391815 
L 272.322046 380.143872 
L 278.475267 366.563223 
L 284.628488 351.788314 
L 290.781709 335.969767 
L 296.93493 319.26884 
L 303.088151 301.85579 
L 309.241372 283.908132 
L 315.394593 265.60883 
L 321.547814 247.144435 
L 327.701035 228.703179 
L 333.854256 210.473059 
L 340.007477 192.63992 
L 346.160698 175.38556 
L 352.313919 158.885875 
L 358.46714 143.30907 
L 364.620361 128.81394 
L 370.773582 115.548254 
L 376.926803 103.647247 
L 383.080024 93.232243 
L 389.233246 84.409416 
L 395.386467 77.268708 
L 401.539688 71.882916 
L 407.692909 68.306943 
L 413.84613 66.577246 
L 419.999351 66.711455 
L 426.152572 68.708205 
L 432.305793 72.547138 
L 438.459014 78.18912 
L 444.612235 85.576634 
L 450.765456 94.634368 
L 456.918677 105.269986 
L 463.071898 117.375064 
L 469.225119 130.826197 
L 475.37834 145.486261 
L 481.531561 161.205805 
L 487.684782 177.824579 
L 493.838003 195.173164 
L 499.991224 213.074702 
L 506.144445 231.346699 
L 512.297666 249.802884 
L 518.450887 268.255106 
L 524.604108 286.515258 
L 530.757329 304.397189 
L 536.91055 321.718603 
L 543.063771 338.30292 
L 549.216992 353.981073 
L 555.370213 368.593233 
L 561.523434 381.990439 
L 567.676655 394.036115 
L 573.829876 404.607461 
L 579.983097 413.596711 
L 586.136318 420.912225 
L 592.289539 426.479425 
L 598.44276 430.241557 
L 604.595982 432.16027 
L 610.749203 432.216001 
L 616.902424 430.408185 
L 623.055645 426.75525 
L 629.208866 421.294435 
L 635.362087 414.08141 
L 641.515308 405.189708 
L 647.668529 394.709973 
L 653.82175 382.74904 
L 659.974971 369.428843 
L 666.128192 354.885173 
L 672.281413 339.266294 
L 678.434634 322.73143 
L 684.587855 305.449143 
L 690.741076 287.595616 
" clip-path="url(#p645aeeac1e)" style="fill: none; stroke: #984ea3; stroke-width: 2.5; stroke-linecap: square"/>
   </g>
   <g id="line2d_18">
    <path d="M 81.572194 249.414248 
L 87.725415 270.175274 
L 93.878636 290.724654 
L 100.031857 310.852901 
L 106.185078 330.354819 
L 112.338299 349.0316 
L 118.49152 366.692844 
L 124.644741 383.158507 
L 130.797962 398.260732 
L 136.951183 411.845561 
L 143.104404 423.774506 
L 149.257625 433.925958 
L 155.410846 442.196429 
L 161.564067 448.501608 
L 167.717288 452.777217 
L 173.87051 454.97967 
L 180.023731 455.086512 
L 186.176952 453.096656 
L 192.330173 449.030386 
L 198.483394 442.929156 
L 204.636615 434.855163 
L 210.789836 424.890718 
L 216.943057 413.137401 
L 223.096278 399.715029 
L 229.249499 384.760436 
L 235.40272 368.426075 
L 241.555941 350.878463 
L 247.709162 332.296487 
L 253.862383 312.869579 
L 260.015604 292.795784 
L 266.168825 272.279742 
L 272.322046 251.530601 
L 278.475267 230.759885 
L 284.628488 210.179338 
L 290.781709 189.998766 
L 296.93493 170.423898 
L 303.088151 151.654286 
L 309.241372 133.881275 
L 315.394593 117.28605 
L 321.547814 102.037789 
L 327.701035 88.291937 
L 333.854256 76.188626 
L 340.007477 65.85124 
L 346.160698 57.385164 
L 352.313919 50.876702 
L 358.46714 46.392206 
L 364.620361 43.977391 
L 370.773582 43.656874 
L 376.926803 45.433925 
L 383.080024 49.290426 
L 389.233246 55.187062 
L 395.386467 63.063723 
L 401.539688 72.840109 
L 407.692909 84.416557 
L 413.84613 97.675052 
L 419.999351 112.480432 
L 426.152572 128.681766 
L 432.305793 146.113892 
L 438.459014 164.599099 
L 444.612235 183.948944 
L 450.765456 203.966165 
L 456.918677 224.446702 
L 463.071898 245.181766 
L 469.225119 265.959978 
L 475.37834 286.569517 
L 481.531561 306.800281 
L 487.684782 326.446031 
L 493.838003 345.306491 
L 499.991224 363.189389 
L 506.144445 379.912422 
L 512.297666 395.305109 
L 518.450887 409.21053 
L 524.604108 421.48693 
L 530.757329 432.009157 
L 536.91055 440.669944 
L 543.063771 447.381 
L 549.216992 452.07391 
L 555.370213 454.700833 
L 561.523434 455.234989 
L 567.676655 453.670933 
L 573.829876 450.024608 
L 579.983097 444.333188 
L 586.136318 436.654692 
L 592.289539 427.067399 
L 598.44276 415.669043 
L 604.595982 402.575825 
L 610.749203 387.921222 
L 616.902424 371.854627 
L 623.055645 354.53983 
L 629.208866 336.153344 
L 635.362087 316.882608 
L 641.515308 296.924075 
L 647.668529 276.481208 
L 653.82175 255.762412 
L 659.974971 234.9789 
L 666.128192 214.342547 
L 672.281413 194.063727 
L 678.434634 174.349172 
L 684.587855 155.399857 
L 690.741076 137.40896 
" clip-path="url(#p645aeeac1e)" style="fill: none; stroke: #ff7f00; stroke-width: 2.5; stroke-linecap: square"/>
   </g>
   <g id="patch_3">
    <path d="M 51.11375 475.813895 
L 51.11375 23.077969 
" style="fill: none; stroke: #000000; stroke-width: 1.5; stroke-linejoin: miter; stroke-linecap: square"/>
   </g>
   <g id="patch_4">
    <path d="M 721.19952 475.813895 
L 721.19952 23.077969 
" style="fill: none; stroke: #000000; stroke-width: 1.5; stroke-linejoin: miter; stroke-linecap: square"/>
   </g>
   <g id="patch_5">
    <path d="M 51.11375 475.813895 
L 721.19952 475.813895 
" style="fill: none; stroke: #000000; stroke-width: 1.5; stroke-linejoin: miter; stroke-linecap: square"/>
   </g>
   <g id="patch_6">
    <path d="M 51.11375 23.077969 
L 721.19952 23.077969 
" style="fill: none; stroke: #000000; stroke-width: 1.5; stroke-linejoin: miter; stroke-linecap: square"/>
   </g>
   <g id="text_16">
    <!-- Multiple Datasets - Prism Rain Theme -->
    <g transform="translate(247.929057 17.077969) scale(0.13 -0.13)">
     <defs>
      <path id="DejaVuSans-Bold-4d" d="M 588 4666 
L 2119 4666 
L 3181 2169 
L 4250 4666 
L 5778 4666 
L 5778 0 
L 4641 0 
L 4641 3413 
L 3566 897 
L 2803 897 
L 1728 3413 
L 1728 0 
L 588 0 
L 588 4666 
z
" transform="scale(0.015625)"/>
      <path id="DejaVuSans-Bold-69" d="M 538 3500 
L 1656 3500 
L 1656 0 
L 538 0 
L 538 3500 
z
M 538 4863 
L 1656 4863 
L 1656 3950 
L 538 3950 
L 538 4863 
z
" transform="scale(0.015625)"/>
      <path id="DejaVuSans-Bold-70" d="M 1656 506 
L 1656 -1331 
L 538 -1331 
L 538 3500 
L 1656 3500 
L 1656 2988 
Q 1888 3294 2169 3439 
Q 2450 3584 2816 3584 
Q 3463 3584 3878 3070 
Q 4294 2556 4294 1747 
Q 4294 938 3878 423 
Q 3463 -91 2816 -91 
Q 2450 -91 2169 54 
Q 1888 200 1656 506 
z
M 2400 2772 
Q 2041 2772 1848 2508 
Q 1656 2244 1656 1747 
Q 1656 1250 1848 986 
Q 2041 722 2400 722 
Q 2759 722 2948 984 
Q 3138 1247 3138 1747 
Q 3138 2247 2948 2509 
Q 2759 2772 2400 2772 
z
" transform="scale(0.015625)"/>
      <path id="DejaVuSans-Bold-44" d="M 1791 3756 
L 1791 909 
L 2222 909 
Q 2959 909 3348 1275 
Q 3738 1641 3738 2338 
Q 3738 3031 3350 3393 
Q 2963 3756 2222 3756 
L 1791 3756 
z
M 588 4666 
L 1856 4666 
Q 2919 4666 3439 4514 
Q 3959 4363 4331 4000 
Q 4659 3684 4818 3271 
Q 4978 2859 4978 2338 
Q 4978 1809 4818 1395 
Q 4659 981 4331 666 
Q 3956 303 3431 151 
Q 2906 0 1856 0 
L 588 0 
L 588 4666 
z
" transform="scale(0.015625)"/>
      <path id="DejaVuSans-Bold-73" d="M 3272 3391 
L 3272 2541 
Q 2913 2691 2578 2766 
Q 2244 2841 1947 2841 
Q 1628 2841 1473 2761 
Q 1319 2681 1319 2516 
Q 1319 2381 1436 2309 
Q 1553 2238 1856 2203 
L 2053 2175 
Q 2913 2066 3209 1816 
Q 3506 1566 3506 1031 
Q 3506 472 3093 190 
Q 2681 -91 1863 -91 
Q 1516 -91 1145 -36 
Q 775 19 384 128 
L 384 978 
Q 719 816 1070 734 
Q 1422 653 1784 653 
Q 2113 653 2278 743 
Q 2444 834 2444 1013 
Q 2444 1163 2330 1236 
Q 2216 1309 1875 1350 
L 1678 1375 
Q 931 1469 631 1722 
Q 331 1975 331 2491 
Q 331 3047 712 3315 
Q 1094 3584 1881 3584 
Q 2191 3584 2531 3537 
Q 2872 3491 3272 3391 
z
" transform="scale(0.015625)"/>
      <path id="DejaVuSans-Bold-2d" d="M 347 2297 
L 2309 2297 
L 2309 1388 
L 347 1388 
L 347 2297 
z
" transform="scale(0.015625)"/>
      <path id="DejaVuSans-Bold-50" d="M 588 4666 
L 2584 4666 
Q 3475 4666 3951 4270 
Q 4428 3875 4428 3144 
Q 4428 2409 3951 2014 
Q 3475 1619 2584 1619 
L 1791 1619 
L 1791 0 
L 588 0 
L 588 4666 
z
M 1791 3794 
L 1791 2491 
L 2456 2491 
Q 2806 2491 2997 2661 
Q 3188 2831 3188 3144 
Q 3188 3456 2997 3625 
Q 2806 3794 2456 3794 
L 1791 3794 
z
" transform="scale(0.015625)"/>
      <path id="DejaVuSans-Bold-6d" d="M 3781 2919 
Q 3994 3244 4286 3414 
Q 4578 3584 4928 3584 
Q 5531 3584 5847 3212 
Q 6163 2841 6163 2131 
L 6163 0 
L 5038 0 
L 5038 1825 
Q 5041 1866 5042 1909 
Q 5044 1953 5044 2034 
Q 5044 2406 4934 2573 
Q 4825 2741 4581 2741 
Q 4263 2741 4089 2478 
Q 3916 2216 3909 1719 
L 3909 0 
L 2784 0 
L 2784 1825 
Q 2784 2406 2684 2573 
Q 2584 2741 2328 2741 
Q 2006 2741 1831 2477 
Q 1656 2213 1656 1722 
L 1656 0 
L 531 0 
L 531 3500 
L 1656 3500 
L 1656 2988 
Q 1863 3284 2130 3434 
Q 2397 3584 2719 3584 
Q 3081 3584 3359 3409 
Q 3638 3234 3781 2919 
z
" transform="scale(0.015625)"/>
      <path id="DejaVuSans-Bold-52" d="M 2297 2597 
Q 2675 2597 2839 2737 
Q 3003 2878 3003 3200 
Q 3003 3519 2839 3656 
Q 2675 3794 2297 3794 
L 1791 3794 
L 1791 2597 
L 2297 2597 
z
M 1791 1766 
L 1791 0 
L 588 0 
L 588 4666 
L 2425 4666 
Q 3347 4666 3776 4356 
Q 4206 4047 4206 3378 
Q 4206 2916 3982 2619 
Q 3759 2322 3309 2181 
Q 3556 2125 3751 1926 
Q 3947 1728 4147 1325 
L 4800 0 
L 3519 0 
L 2950 1159 
Q 2778 1509 2601 1637 
Q 2425 1766 2131 1766 
L 1791 1766 
z
" transform="scale(0.015625)"/>
      <path id="DejaVuSans-Bold-54" d="M 31 4666 
L 4331 4666 
L 4331 3756 
L 2784 3756 
L 2784 0 
L 1581 0 
L 1581 3756 
L 31 3756 
L 31 4666 
z
" transform="scale(0.015625)"/>
      <path id="DejaVuSans-Bold-68" d="M 4056 2131 
L 4056 0 
L 2931 0 
L 2931 347 
L 2931 1625 
Q 2931 2084 2911 2256 
Q 2891 2428 2841 2509 
Q 2775 2619 2662 2680 
Q 2550 2741 2406 2741 
Q 2056 2741 1856 2470 
Q 1656 2200 1656 1722 
L 1656 0 
L 538 0 
L 538 4863 
L 1656 4863 
L 1656 2988 
Q 1909 3294 2193 3439 
Q 2478 3584 2822 3584 
Q 3428 3584 3742 3212 
Q 4056 2841 4056 2131 
z
" transform="scale(0.015625)"/>
     </defs>
     <use xlink:href="#DejaVuSans-Bold-4d"/>
     <use xlink:href="#DejaVuSans-Bold-75" transform="translate(99.511719 0)"/>
     <use xlink:href="#DejaVuSans-Bold-6c" transform="translate(170.703125 0)"/>
     <use xlink:href="#DejaVuSans-Bold-74" transform="translate(204.980469 0)"/>
     <use xlink:href="#DejaVuSans-Bold-69" transform="translate(252.783203 0)"/>
     <use xlink:href="#DejaVuSans-Bold-70" transform="translate(287.060547 0)"/>
     <use xlink:href="#DejaVuSans-Bold-6c" transform="translate(358.642578 0)"/>
     <use xlink:href="#DejaVuSans-Bold-65" transform="translate(392.919922 0)"/>
     <use xlink:href="#DejaVuSans-Bold-20" transform="translate(460.742188 0)"/>
     <use xlink:href="#DejaVuSans-Bold-44" transform="translate(495.556641 0)"/>
     <use xlink:href="#DejaVuSans-Bold-61" transform="translate(578.564453 0)"/>
     <use xlink:href="#DejaVuSans-Bold-74" transform="translate(646.044922 0)"/>
     <use xlink:href="#DejaVuSans-Bold-61" transform="translate(693.847656 0)"/>
     <use xlink:href="#DejaVuSans-Bold-73" transform="translate(761.328125 0)"/>
     <use xlink:href="#DejaVuSans-Bold-65" transform="translate(820.849609 0)"/>
     <use xlink:href="#DejaVuSans-Bold-74" transform="translate(888.671875 0)"/>
     <use xlink:href="#DejaVuSans-Bold-73" transform="translate(936.474609 0)"/>
     <use xlink:href="#DejaVuSans-Bold-20" transform="translate(995.996094 0)"/>
     <use xlink:href="#DejaVuSans-Bold-2d" transform="translate(1030.810547 0)"/>
     <use xlink:href="#DejaVuSans-Bold-20" transform="translate(1072.314453 0)"/>
     <use xlink:href="#DejaVuSans-Bold-50" transform="translate(1107.128906 0)"/>
     <use xlink:href="#DejaVuSans-Bold-72" transform="translate(1180.419922 0)"/>
     <use xlink:href="#DejaVuSans-Bold-69" transform="translate(1229.736328 0)"/>
     <use xlink:href="#DejaVuSans-Bold-73" transform="translate(1264.013672 0)"/>
     <use xlink:href="#DejaVuSans-Bold-6d" transform="translate(1323.535156 0)"/>
     <use xlink:href="#DejaVuSans-Bold-20" transform="translate(1427.734375 0)"/>
     <use xlink:href="#DejaVuSans-Bold-52" transform="translate(1462.548828 0)"/>
     <use xlink:href="#DejaVuSans-Bold-61" transform="translate(1539.550781 0)"/>
     <use xlink:href="#DejaVuSans-Bold-69" transform="translate(1607.03125 0)"/>
     <use xlink:href="#DejaVuSans-Bold-6e" transform="translate(1641.308594 0)"/>
     <use xlink:href="#DejaVuSans-Bold-20" transform="translate(1712.5 0)"/>
     <use xlink:href="#DejaVuSans-Bold-54" transform="translate(1747.314453 0)"/>
     <use xlink:href="#DejaVuSans-Bold-68" transform="translate(1815.527344 0)"/>
     <use xlink:href="#DejaVuSans-Bold-65" transform="translate(1886.71875 0)"/>
     <use xlink:href="#DejaVuSans-Bold-6d" transform="translate(1954.541016 0)"/>
     <use xlink:href="#DejaVuSans-Bold-65" transform="translate(2058.740234 0)"/>
    </g>
   </g>
   <g id="legend_1">
    <g id="line2d_19">
     <path d="M 635.49952 36.176406 
L 645.49952 36.176406 
L 655.49952 36.176406 
" style="fill: none; stroke: #e41a1c; stroke-width: 2.5; stroke-linecap: square"/>
    </g>
    <g id="text_17">
     <!-- Dataset 1 -->
     <g transform="translate(663.49952 39.676406) scale(0.1 -0.1)">
      <defs>
       <path id="DejaVuSans-44" d="M 1259 4147 
L 1259 519 
L 2022 519 
Q 2988 519 3436 956 
Q 3884 1394 3884 2338 
Q 3884 3275 3436 3711 
Q 2988 4147 2022 4147 
L 1259 4147 
z
M 628 4666 
L 1925 4666 
Q 3281 4666 3915 4102 
Q 4550 3538 4550 2338 
Q 4550 1131 3912 565 
Q 3275 0 1925 0 
L 628 0 
L 628 4666 
z
" transform="scale(0.015625)"/>
       <path id="DejaVuSans-61" d="M 2194 1759 
Q 1497 1759 1228 1600 
Q 959 1441 959 1056 
Q 959 750 1161 570 
Q 1363 391 1709 391 
Q 2188 391 2477 730 
Q 2766 1069 2766 1631 
L 2766 1759 
L 2194 1759 
z
M 3341 1997 
L 3341 0 
L 2766 0 
L 2766 531 
Q 2569 213 2275 61 
Q 1981 -91 1556 -91 
Q 1019 -91 701 211 
Q 384 513 384 1019 
Q 384 1609 779 1909 
Q 1175 2209 1959 2209 
L 2766 2209 
L 2766 2266 
Q 2766 2663 2505 2880 
Q 2244 3097 1772 3097 
Q 1472 3097 1187 3025 
Q 903 2953 641 2809 
L 641 3341 
Q 956 3463 1253 3523 
Q 1550 3584 1831 3584 
Q 2591 3584 2966 3190 
Q 3341 2797 3341 1997 
z
" transform="scale(0.015625)"/>
       <path id="DejaVuSans-74" d="M 1172 4494 
L 1172 3500 
L 2356 3500 
L 2356 3053 
L 1172 3053 
L 1172 1153 
Q 1172 725 1289 603 
Q 1406 481 1766 481 
L 2356 481 
L 2356 0 
L 1766 0 
Q 1100 0 847 248 
Q 594 497 594 1153 
L 594 3053 
L 172 3053 
L 172 3500 
L 594 3500 
L 594 4494 
L 1172 4494 
z
" transform="scale(0.015625)"/>
       <path id="DejaVuSans-73" d="M 2834 3397 
L 2834 2853 
Q 2591 2978 2328 3040 
Q 2066 3103 1784 3103 
Q 1356 3103 1142 2972 
Q 928 2841 928 2578 
Q 928 2378 1081 2264 
Q 1234 2150 1697 2047 
L 1894 2003 
Q 2506 1872 2764 1633 
Q 3022 1394 3022 966 
Q 3022 478 2636 193 
Q 2250 -91 1575 -91 
Q 1294 -91 989 -36 
Q 684 19 347 128 
L 347 722 
Q 666 556 975 473 
Q 1284 391 1588 391 
Q 1994 391 2212 530 
Q 2431 669 2431 922 
Q 2431 1156 2273 1281 
Q 2116 1406 1581 1522 
L 1381 1569 
Q 847 1681 609 1914 
Q 372 2147 372 2553 
Q 372 3047 722 3315 
Q 1072 3584 1716 3584 
Q 2034 3584 2315 3537 
Q 2597 3491 2834 3397 
z
" transform="scale(0.015625)"/>
       <path id="DejaVuSans-65" d="M 3597 1894 
L 3597 1613 
L 953 1613 
Q 991 1019 1311 708 
Q 1631 397 2203 397 
Q 2534 397 2845 478 
Q 3156 559 3463 722 
L 3463 178 
Q 3153 47 2828 -22 
Q 2503 -91 2169 -91 
Q 1331 -91 842 396 
Q 353 884 353 1716 
Q 353 2575 817 3079 
Q 1281 3584 2069 3584 
Q 2775 3584 3186 3129 
Q 3597 2675 3597 1894 
z
M 3022 2063 
Q 3016 2534 2758 2815 
Q 2500 3097 2075 3097 
Q 1594 3097 1305 2825 
Q 1016 2553 972 2059 
L 3022 2063 
z
" transform="scale(0.015625)"/>
       <path id="DejaVuSans-20" transform="scale(0.015625)"/>
      </defs>
      <use xlink:href="#DejaVuSans-44"/>
      <use xlink:href="#DejaVuSans-61" transform="translate(77.001953 0)"/>
      <use xlink:href="#DejaVuSans-74" transform="translate(138.28125 0)"/>
      <use xlink:href="#DejaVuSans-61" transform="translate(177.490234 0)"/>
      <use xlink:href="#DejaVuSans-73" transform="translate(238.769531 0)"/>
      <use xlink:href="#DejaVuSans-65" transform="translate(290.869141 0)"/>
      <use xlink:href="#DejaVuSans-74" transform="translate(352.392578 0)"/>
      <use xlink:href="#DejaVuSans-20" transform="translate(391.601562 0)"/>
      <use xlink:href="#DejaVuSans-31" transform="translate(423.388672 0)"/>
     </g>
    </g>
    <g id="line2d_20">
     <path d="M 635.49952 50.854531 
L 645.49952 50.854531 
L 655.49952 50.854531 
" style="fill: none; stroke: #377eb8; stroke-width: 2.5; stroke-linecap: square"/>
    </g>
    <g id="text_18">
     <!-- Dataset 2 -->
     <g transform="translate(663.49952 54.354531) scale(0.1 -0.1)">
      <use xlink:href="#DejaVuSans-44"/>
      <use xlink:href="#DejaVuSans-61" transform="translate(77.001953 0)"/>
      <use xlink:href="#DejaVuSans-74" transform="translate(138.28125 0)"/>
      <use xlink:href="#DejaVuSans-61" transform="translate(177.490234 0)"/>
      <use xlink:href="#DejaVuSans-73" transform="translate(238.769531 0)"/>
      <use xlink:href="#DejaVuSans-65" transform="translate(290.869141 0)"/>
      <use xlink:href="#DejaVuSans-74" transform="translate(352.392578 0)"/>
      <use xlink:href="#DejaVuSans-20" transform="translate(391.601562 0)"/>
      <use xlink:href="#DejaVuSans-32" transform="translate(423.388672 0)"/>
     </g>
    </g>
    <g id="line2d_21">
     <path d="M 635.49952 65.532656 
L 645.49952 65.532656 
L 655.49952 65.532656 
" style="fill: none; stroke: #4daf4a; stroke-width: 2.5; stroke-linecap: square"/>
    </g>
    <g id="text_19">
     <!-- Dataset 3 -->
     <g transform="translate(663.49952 69.032656) scale(0.1 -0.1)">
      <defs>
       <path id="DejaVuSans-33" d="M 2597 2516 
Q 3050 2419 3304 2112 
Q 3559 1806 3559 1356 
Q 3559 666 3084 287 
Q 2609 -91 1734 -91 
Q 1441 -91 1130 -33 
Q 819 25 488 141 
L 488 750 
Q 750 597 1062 519 
Q 1375 441 1716 441 
Q 2309 441 2620 675 
Q 2931 909 2931 1356 
Q 2931 1769 2642 2001 
Q 2353 2234 1838 2234 
L 1294 2234 
L 1294 2753 
L 1863 2753 
Q 2328 2753 2575 2939 
Q 2822 3125 2822 3475 
Q 2822 3834 2567 4026 
Q 2313 4219 1838 4219 
Q 1578 4219 1281 4162 
Q 984 4106 628 3988 
L 628 4550 
Q 988 4650 1302 4700 
Q 1616 4750 1894 4750 
Q 2613 4750 3031 4423 
Q 3450 4097 3450 3541 
Q 3450 3153 3228 2886 
Q 3006 2619 2597 2516 
z
" transform="scale(0.015625)"/>
      </defs>
      <use xlink:href="#DejaVuSans-44"/>
      <use xlink:href="#DejaVuSans-61" transform="translate(77.001953 0)"/>
      <use xlink:href="#DejaVuSans-74" transform="translate(138.28125 0)"/>
      <use xlink:href="#DejaVuSans-61" transform="translate(177.490234 0)"/>
      <use xlink:href="#DejaVuSans-73" transform="translate(238.769531 0)"/>
      <use xlink:href="#DejaVuSans-65" transform="translate(290.869141 0)"/>
      <use xlink:href="#DejaVuSans-74" transform="translate(352.392578 0)"/>
      <use xlink:href="#DejaVuSans-20" transform="translate(391.601562 0)"/>
      <use xlink:href="#DejaVuSans-33" transform="translate(423.388672 0)"/>
     </g>
    </g>
    <g id="line2d_22">
     <path d="M 635.49952 80.210781 
L 645.49952 80.210781 
L 655.49952 80.210781 
" style="fill: none; stroke: #984ea3; stroke-width: 2.5; stroke-linecap: square"/>
    </g>
    <g id="text_20">
     <!-- Dataset 4 -->
     <g transform="translate(663.49952 83.710781) scale(0.1 -0.1)">
      <use xlink:href="#DejaVuSans-44"/>
      <use xlink:href="#DejaVuSans-61" transform="translate(77.001953 0)"/>
      <use xlink:href="#DejaVuSans-74" transform="translate(138.28125 0)"/>
      <use xlink:href="#DejaVuSans-61" transform="translate(177.490234 0)"/>
      <use xlink:href="#DejaVuSans-73" transform="translate(238.769531 0)"/>
      <use xlink:href="#DejaVuSans-65" transform="translate(290.869141 0)"/>
      <use xlink:href="#DejaVuSans-74" transform="translate(352.392578 0)"/>
      <use xlink:href="#DejaVuSans-20" transform="translate(391.601562 0)"/>
      <use xlink:href="#DejaVuSans-34" transform="translate(423.388672 0)"/>
     </g>
    </g>
    <g id="line2d_23">
     <path d="M 635.49952 94.888906 
L 645.49952 94.888906 
L 655.49952 94.888906 
" style="fill: none; stroke: #ff7f00; stroke-width: 2.5; stroke-linecap: square"/>
    </g>
    <g id="text_21">
     <!-- Dataset 5 -->
     <g transform="translate(663.49952 98.388906) scale(0.1 -0.1)">
      <use xlink:href="#DejaVuSans-44"/>
      <use xlink:href="#DejaVuSans-61" transform="translate(77.001953 0)"/>
      <use xlink:href="#DejaVuSans-74" transform="translate(138.28125 0)"/>
      <use xlink:href="#DejaVuSans-61" transform="translate(177.490234 0)"/>
      <use xlink:href="#DejaVuSans-73" transform="translate(238.769531 0)"/>
      <use xlink:href="#DejaVuSans-65" transform="translate(290.869141 0)"/>
      <use xlink:href="#DejaVuSans-74" transform="translate(352.392578 0)"/>
      <use xlink:href="#DejaVuSans-20" transform="translate(391.601562 0)"/>
      <use xlink:href="#DejaVuSans-35" transform="translate(423.388672 0)"/>
     </g>
    </g>
   </g>
  </g>
 </g>
 <defs>
  <clipPath id="p645aeeac1e">
   <rect x="51.11375" y="23.077969" width="670.08577" height="452.735926"/>
  </clipPath>
 </defs>
</svg>
